<svg xmlns="http://www.w3.org/2000/svg" xmlns:xlink="http://www.w3.org/1999/xlink" width="203" height="27" viewBox="0 0 203 27">
    <defs>
        <path id="a" d="M0 .07h202.65v26.832H0z"/>
    </defs>
    <g fill="none" fill-rule="evenodd">
        <g transform="translate(0 .028)">
            <mask id="b" fill="#fff">
                <use xlink:href="#a"/>
            </mask>
            <path fill="#FF500A" d="M4.538 20.431c.52 0 .989-.356 1.13-.856l2.028-7.238 2.068 7.24c.143.5.614.854 1.134.854h.534a1.2 1.2 0 0 0 1.14-.853l2.835-9.68a.666.666 0 0 0-.64-.853h-.555c-.519 0-.984.36-1.116.86l-1.953 7.435-1.934-7.434a1.16 1.16 0 0 0-1.113-.861H7.34c-.518 0-.983.36-1.114.861L4.293 17.34 2.34 9.906a1.164 1.164 0 0 0-1.116-.861H.668a.668.668 0 0 0-.641.854l2.817 9.678c.145.5.617.854 1.138.854h.556zm50.594-5.67c-.067-3.425-1.89-5.96-4.848-5.96-1.357 0-2.335.511-3.07 1.2v-.066a.895.895 0 0 0-.889-.89h-.333a.895.895 0 0 0-.89.89v13.477c0 .487.402.89.89.89h.4c.487 0 .89-.403.89-.89v-3.87c.733.645 1.69 1.134 3.002 1.134 2.98 0 4.781-2.535 4.848-5.915zm12.22 5.67c.42 0 .768-.346.768-.767v-.734a.527.527 0 0 0-.523-.522h-.567c-.267 0-.467-.178-.467-.445v-4.937c0-2.624-1.735-4.226-4.492-4.226-1.877 0-3.638.858-4.319 2.502-.155.375.123.973.51 1.096l.423.136c.573.183.97.003 1.212-.546.374-.85 1.12-1.186 2.174-1.186 1.579 0 2.357.912 2.335 2.235-.467.656-1.824.678-3.247.678-2.313 0-3.936 1.157-3.936 3.403 0 2.313 1.8 3.558 4.292 3.558 1.267 0 2.602-.356 3.269-1.268.4.645 1.067 1.023 1.757 1.023h.812zm-40.297 0c.42 0 .767-.346.767-.767v-.734a.527.527 0 0 0-.522-.522h-.567c-.267 0-.468-.178-.468-.445v-4.937c0-2.624-1.756-4.226-4.492-4.226-1.858 0-3.634.858-4.318 2.503-.155.374.122.971.507 1.095l.425.135c.574.184.97.007 1.214-.544.379-.85 1.134-1.187 2.172-1.187 1.557 0 2.358.912 2.335 2.235-.467.656-1.868.678-3.291.678-2.224 0-3.892 1.157-3.892 3.403 0 2.313 1.824 3.558 4.292 3.558 1.245 0 2.602-.356 3.27-1.268.4.645 1.067 1.023 1.756 1.023h.812zm53.24 0c.421 0 .768-.346.768-.767v-.734a.527.527 0 0 0-.523-.522h-.567c-.266 0-.467-.178-.467-.445V6.065a.895.895 0 0 0-.89-.89h-.4a.895.895 0 0 0-.889.89v3.87c-.734-.645-1.69-1.135-3.002-1.135-2.958 0-4.782 2.536-4.849 5.96.067 3.38 1.869 5.916 4.849 5.916 1.512 0 2.557-.645 3.313-1.423.378.734 1.09 1.178 1.846 1.178h.812zm-20.848-3.335c0-.912.644-1.468 1.667-1.468 1.246 0 2.67-.022 3.292-.556v2.068c-.134 1-1.134 1.49-2.558 1.49-1.29 0-2.401-.49-2.401-1.534zm-40.298 0c0-.912.69-1.468 1.623-1.468 1.246 0 2.713-.022 3.336-.556v2.068c-.133 1-1.156 1.49-2.557 1.49-1.268 0-2.402-.49-2.402-1.534zM71.7 14.75c.045-2.213 1.068-3.859 2.87-3.859 1.267 0 2.245.823 2.757 1.601v4.493c-.512.778-1.49 1.6-2.758 1.6-1.801 0-2.824-1.645-2.869-3.835zm-24.418 2.235v-4.493c.511-.778 1.49-1.601 2.757-1.601 1.802 0 2.825 1.646 2.87 3.859-.045 2.19-1.068 3.836-2.87 3.836-1.267 0-2.246-.823-2.757-1.601zm-11.72 2.557c0 .487-.403.89-.89.89h-1.423c-1.38 0-2.558-1.068-2.558-2.536v-6.783H29.09a.895.895 0 0 1-.89-.89v-.288c0-.488.402-.89.89-.89h1.601v-2.98c0-.487.402-.89.89-.89h.4c.487 0 .89.403.89.89v2.98h4.759v-2.98c0-.487.402-.89.89-.89h.4c.487 0 .89.403.89.89v2.98h1.979c.487 0 .889.402.889.89v.289c0 .487-.402.89-.89.89H39.81v6.627c0 .378.267.667.667.667h1.29c.488 0 .89.402.89.89v.244c0 .487-.402.89-.89.89h-1.579c-1.379 0-2.557-1.068-2.557-2.536v-6.783h-4.76v6.628c0 .378.267.667.668.667h1.134c.487 0 .89.402.89.89v.244zm137.93 7.36c5.45 0 6.214-6.678 9.934-12.636-.134 2.129-.012 4.014.4 5.314 1.622 5.112 7.197 5.509 9.729.316 3.57-7.325 4.597-9.049 8.2-14.322 2.377-3.481-.38-5.733-3.572-4.113-1.64.833-4.3 2.91-7.617 7.32.583-3.353.423-9.02-4.41-8.698-2.55.17-5.865 3.05-10.38 10.45.37-4.148.52-7.095-1.288-8.64-1.238-1.056-4.157-1.465-5.905.807-1.758 2.285-2.169 6.743-1.997 11.436.358 9.804 3.828 12.766 6.905 12.766z" mask="url(#b)"/>
        </g>
        <path fill="#FF500A" d="M93.206 19.527c1.883.022 2.88-.817 2.88-1.928 0-.862-.657-1.316-1.473-1.452a30.001 30.001 0 0 1-2.904-.657c-1.247-.363-2.494-1.27-2.494-2.926 0-1.928 1.678-3.22 4.037-3.22 2.222 0 3.765 1.315 4.082 2.97.046.272-.113.5-.408.5h-.703c-.272 0-.544-.182-.613-.454-.18-.703-.93-1.588-2.38-1.588-1.498 0-2.428.726-2.428 1.77 0 .77.613 1.27 1.384 1.45.839.227 1.882.432 2.767.613 1.406.272 2.767 1.18 2.767 2.994 0 1.882-1.656 3.402-4.536 3.402-2.563 0-4.332-1.497-4.468-3.516-.023-.294.158-.499.43-.499h.726c.318 0 .522.227.545.522.09 1.066 1.134 1.996 2.79 2.019M99.126 11.09c-.318 0-.545-.227-.545-.5v-.544c0-.295.205-.521.545-.521h1.723V5.918c0-.317.205-.521.5-.521h.634c.318 0 .5.204.5.521v3.607h2.109a.5.5 0 0 1 .521.521v.545c0 .272-.204.499-.521.499h-2.11v7.167c0 .635.431 1.043 1.044 1.043h1.043c.295 0 .522.204.522.476v.544c0 .295-.227.5-.522.5h-1.066c-1.633 0-2.654-.998-2.654-2.563V11.09h-1.723zM114.934 19.345c-.817.998-2.087 1.656-3.425 1.656-2.676 0-4.31-1.678-4.31-4.377v-6.578c0-.295.205-.521.5-.521h.657a.5.5 0 0 1 .522.521v6.532c0 1.815.975 2.903 2.835 2.903 1.43 0 2.745-1.18 3.153-2.245v-7.19a.5.5 0 0 1 .521-.521h.658c.318 0 .5.226.5.521v10.252c0 .272-.25.521-.5.521h-.567c-.295 0-.476-.181-.499-.499l-.045-.975zM127.113 12.768c-.522-.93-1.724-1.928-3.062-1.928-2.11 0-3.402 1.905-3.402 4.332 0 2.472 1.225 4.287 3.402 4.287 1.497 0 2.722-1.293 3.062-2.223v-4.468zm.022 6.645c-.635.862-1.882 1.588-3.175 1.588-3.107 0-4.99-2.472-5.012-5.806-.023-3.312 1.905-5.852 5.058-5.852 1.179 0 2.29.567 3.107 1.384V4.875c0-.317.227-.544.544-.544h.612c.295 0 .522.25.522.544v15.423c0 .272-.204.521-.499.521h-.612c-.318 0-.522-.226-.522-.499l-.023-.907zM132.42 10.046c0-.272.204-.521.521-.521h.635c.318 0 .522.25.522.521v10.252a.528.528 0 0 1-.522.521h-.635a.528.528 0 0 1-.521-.521V10.046zm.839-5.579c.794 0 1.429.612 1.429 1.429 0 .816-.635 1.406-1.43 1.406-.793 0-1.405-.59-1.405-1.406 0-.817.612-1.429 1.406-1.429zM138.724 15.15c0 2.517 1.452 4.286 3.47 4.286 2.02 0 3.493-1.746 3.493-4.287 0-2.45-1.474-4.24-3.493-4.24-2.018 0-3.47 1.79-3.47 4.24m-1.655 0c0-3.356 2.313-5.806 5.125-5.806 2.813 0 5.149 2.45 5.149 5.806 0 3.402-2.2 5.852-5.149 5.852-2.925 0-5.125-2.45-5.125-5.852M153.398 19.527c1.883.022 2.88-.817 2.88-1.928 0-.862-.657-1.316-1.473-1.452a30.001 30.001 0 0 1-2.903-.657c-1.248-.363-2.495-1.27-2.495-2.926 0-1.928 1.678-3.22 4.037-3.22 2.223 0 3.765 1.315 4.082 2.97.046.272-.113.5-.408.5h-.703c-.272 0-.544-.182-.612-.454-.182-.703-.93-1.588-2.382-1.588-1.497 0-2.427.726-2.427 1.77 0 .77.613 1.27 1.384 1.45.839.227 1.882.432 2.767.613 1.406.272 2.767 1.18 2.767 2.994 0 1.882-1.656 3.402-4.536 3.402-2.563 0-4.332-1.497-4.468-3.516-.023-.294.159-.499.43-.499h.726c.318 0 .522.227.545.522.09 1.066 1.134 1.996 2.79 2.019"/>
    </g>
</svg>
